<svg xmlns="http://www.w3.org/2000/svg" width="24" height="24" viewBox="0 0 24 24">
  <path fill="#FFDB4D" d="M6,5 L8,3 L16,3 L18,5 L22,5 C23.1045695,5 24,5.8954305 24,7 L24,19 C24,20.1045695 23.1045695,21 22,21 L2,21 C0.8954305,21 1.3527075e-16,20.1045695 0,19 L0,7 C-1.3527075e-16,5.8954305 0.8954305,5 2,5 L6,5 Z M2,7 L2,19 L22,19 L22,7 L2,7 Z M12,16 C13.6568542,16 15,14.6568542 15,13 C15,11.3431458 13.6568542,10 12,10 C10.3431458,10 9,11.3431458 9,13 C9,14.6568542 10.3431458,16 12,16 Z M12,18 C9.23857625,18 7,15.7614237 7,13 C7,10.2385763 9.23857625,8 12,8 C14.7614237,8 17,10.2385763 17,13 C17,15.7614237 14.7614237,18 12,18 Z"/>
</svg>
