<svg xmlns="http://www.w3.org/2000/svg" width="16" height="16" viewBox="0 0 16 16" fill="#FFFFFF">
  <path d="M4,2 L5.33333333,1 L10.6666667,1 L12,2 L14.9906311,2 C15.5566468,2 16,2.4447803 16,2.99344461 L16,12.5598454 C16,13.3552208 15.4019825,14 14.6633689,14 L1.33663106,14 C0.598430109,14 0,13.3539623 0,12.5598454 L0,2.99344461 C0,2.45374336 0.451909848,2 1.0093689,2 L4,2 Z M8,12 C10.209139,12 12,10.209139 12,8 C12,5.790861 10.209139,4 8,4 C5.790861,4 4,5.790861 4,8 C4,10.209139 5.790861,12 8,12 Z M8,10.5 C9.38071187,10.5 10.5,9.38071187 10.5,8 C10.5,6.61928813 9.38071187,5.5 8,5.5 C6.61928813,5.5 5.5,6.61928813 5.5,8 C5.5,9.38071187 6.61928813,10.5 8,10.5 Z"/>
</svg>
