<svg xmlns="http://www.w3.org/2000/svg" width="24" height="24" viewBox="0 0 24 24">
  <path d="M12,22 C6.4771525,22 2,17.5228475 2,12 C2,6.4771525 6.4771525,2 12,2 C17.5228475,2 22,6.4771525 22,12 C22,17.5228475 17.5228475,22 12,22 Z M12,20 C16.418278,20 20,16.418278 20,12 C20,7.581722 16.418278,4 12,4 C7.581722,4 4,7.581722 4,12 C4,16.418278 7.581722,20 12,20 Z M11,18 L11,16 L13,16 L13,18 L11,18 Z M12,6 C14.21,6 16,7.79 16,10 C16,12.5 13,12.75 13,15 L11,15 C11,11.75 14,12 14,10 C14,8.9 13.1,8 12,8 C10.9,8 10,8.9 10,10 L8,10 C8,7.79 9.79,6 12,6 Z"/>
</svg>
