<svg xmlns="http://www.w3.org/2000/svg" width="16" height="16" viewBox="0 0 16 16">
  <path fill="#FFDB4D" fill-rule="evenodd" d="M7.78587141,14.9967874 C7.85698611,14.998924 7.9283674,15 8,15 C11.8659932,15 15,11.8659932 15,8 C15,4.13400675 11.8659932,1 8,1 C4.13400675,1 1,4.13400675 1,8 C1,9.93297716 1.78348591,11.6829614 3.05021426,12.9497092 L1,14.9967874 L7.78587141,14.9967874 L7.78587141,14.9967874 Z M7.99715909,9.166267 L6.26420455,12.9977005 L5,12.9977005 L6.90340909,8.90058366 C6.45833111,8.6768492 6.09848622,8.34824413 5.82386364,7.91475862 C5.54924105,7.4812731 5.41193182,6.89164841 5.41193182,6.14586688 C5.41193182,5.6238198 5.49005604,5.16470493 5.64630682,4.76850849 C5.8025576,4.37231205 6.01562365,4.04370699 6.28551136,3.78268345 C6.55539908,3.52165991 6.87026335,3.32589519 7.23011364,3.19538342 C7.58996392,3.06487165 7.96874801,2.99961675 8.36647727,2.99961675 L10,2.99961675 L10,12.9977005 L8.90625,12.9977005 L8.90625,9.166267 L7.99715909,9.166267 Z M8.90625,3.90853345 L8.32386364,3.90853345 C8.10605952,3.90853345 7.89299347,3.9481525 7.68465909,4.02739179 C7.47632472,4.10663108 7.29166747,4.23247983 7.13068182,4.40494181 C6.96969616,4.57740379 6.83948913,4.80579596 6.74005682,5.09012517 C6.6406245,5.37445438 6.59090909,5.72636476 6.59090909,6.14586688 C6.59090909,6.54672445 6.6358897,6.88232111 6.72585227,7.15266692 C6.81581484,7.42301273 6.93891967,7.64208277 7.09517045,7.80988361 C7.25142124,7.97768446 7.43607848,8.09654161 7.64914773,8.16645863 C7.86221697,8.23637565 8.08712003,8.27133363 8.32386364,8.27133363 L8.90625,8.27133363 L8.90625,3.90853345 Z"/>
</svg>
