<svg xmlns="http://www.w3.org/2000/svg" width="24" height="24" viewBox="0 0 24 24">
  <path fill="#FFDB4D" d="M4.92893219,19.0710678 C3.11928813,17.2614237 2,14.7614237 2,12 C2,6.4771525 6.4771525,2 12,2 C17.5228475,2 22,6.4771525 22,12 C22,17.5228475 17.5228475,22 12,22 L2,22 L4.92893219,19.0710678 L4.92893219,19.0710678 Z M12,20 C16.418278,20 20,16.418278 20,12 C20,7.581722 16.418278,4 12,4 C7.581722,4 4,7.581722 4,12 C4,16.418278 7.581722,20 12,20 Z M12.5965909,13.4022798 L10.5170455,18 L9,18 L11.2840909,13.0834598 C10.7499973,12.8149784 10.3181835,12.4206524 9.98863636,11.9004698 C9.65908926,11.3802871 9.49431818,10.6727375 9.49431818,9.77779966 C9.49431818,9.15134317 9.58806724,8.60040533 9.77556818,8.1249696 C9.96306912,7.64953387 10.2187484,7.25520779 10.5426136,6.94197955 C10.8664789,6.6287513 11.244316,6.39383364 11.6761364,6.23721952 C12.1079567,6.0806054 12.5624976,6.00229951 13.0397727,6.00229951 L15,6.00229951 L15,18 L13.6875,18 L13.6875,13.4022798 L12.5965909,13.4022798 Z M13.6875,7.09299955 L12.9886364,7.09299955 C12.7272714,7.09299955 12.4715922,7.14054241 12.2215909,7.23562956 C11.9715897,7.33071671 11.750001,7.4817352 11.5568182,7.68868958 C11.3636354,7.89564395 11.207387,8.16971456 11.0880682,8.51090961 C10.9687494,8.85210466 10.9090909,9.27439713 10.9090909,9.77779966 C10.9090909,10.2588288 10.9630676,10.6615447 11.0710227,10.9859597 C11.1789778,11.3103747 11.3267036,11.5732587 11.5142045,11.7746197 C11.7017055,11.9759808 11.9232942,12.1186093 12.1789773,12.2025098 C12.4346604,12.2864102 12.704544,12.3283598 12.9886364,12.3283598 L13.6875,12.3283598 L13.6875,7.09299955 Z"/>
</svg>
