<?xml version="1.0" encoding="UTF-8"?>
<svg width="16px" height="16px" viewBox="0 0 16 16" version="1.1" xmlns="http://www.w3.org/2000/svg" xmlns:xlink="http://www.w3.org/1999/xlink">
    <!-- Generator: Sketch 45.1 (43504) - http://www.bohemiancoding.com/sketch -->
    <title>Artboard</title>
    <desc>Created with Sketch.</desc>
    <defs></defs>
    <g id="Page-1" stroke="none" stroke-width="1" fill="none" fill-rule="evenodd">
        <g id="Artboard" fill-rule="nonzero" fill="#0070F0">
            <g id="icon_refresh_s-inverse" transform="translate(1.000000, 1.000000)">
                <path d="M10.5355339,3.46446609 L8.5,5.5 L14,5.5 L14,0 L11.9497475,2.05025253 C10.6829966,0.78350169 8.93299662,0 7,0 C3.13400675,0 0,3.13400675 0,7 C0,10.8659932 3.13400675,14 7,14 C10.5264719,14 13.4438815,11.3922941 13.9291111,8 L11.8999819,8 C11.4367116,10.2822403 9.4189579,12 7,12 C4.23857625,12 2,9.7614237 2,7 C2,4.23857625 4.23857625,2 7,2 C8.38071187,2 9.6307119,2.55964406 10.5355339,3.46446609 L10.5355339,3.46446609 Z" id="Shape"></path>
            </g>
        </g>
    </g>
</svg>