<svg xmlns="http://www.w3.org/2000/svg" width="16" height="16" viewBox="0 0 16 16">
  <path fill-rule="evenodd" d="M11.5355339,4.46446609 L9.5,6.5 L15,6.5 L15,1 L12.9497475,3.05025253 C11.6829966,1.78350169 9.93299662,1 8,1 C4.13400675,1 1,4.13400675 1,8 C1,11.8659932 4.13400675,15 8,15 C11.5264719,15 14.4438815,12.3922941 14.9291111,9 L12.8999819,9 C12.4367116,11.2822403 10.4189579,13 8,13 C5.23857625,13 3,10.7614237 3,8 C3,5.23857625 5.23857625,3 8,3 C9.38071187,3 10.6307119,3.55964406 11.5355339,4.46446609 L11.5355339,4.46446609 Z"/>
</svg>
