<svg xmlns="http://www.w3.org/2000/svg" width="16" height="16" viewBox="0 0 16 16">
  <g fill="none" fill-rule="evenodd">
    <path fill="#027EFF" d="M11 8C11 7.44771525 11.4477153 7 12 7 12.5522847 7 13 7.44771525 13 8 13 8.55228475 12.5522847 9 12 9 11.4477153 9 11 8.55228475 11 8zM7 8C7 7.44771525 7.44771525 7 8 7 8.55228475 7 9 7.44771525 9 8 9 8.55228475 8.55228475 9 8 9 7.44771525 9 7 8.55228475 7 8zM3 8C3 7.44771525 3.44771525 7 4 7 4.55228475 7 5 7.44771525 5 8 5 8.55228475 4.55228475 9 4 9 3.44771525 9 3 8.55228475 3 8z"/>
  </g>
</svg>
