<svg xmlns="http://www.w3.org/2000/svg" width="24" height="24" viewBox="0 0 24 24">
  <path fill-rule="evenodd" d="M16.2068443,20.9569176 C15.9092883,20.8733621 15.6077676,20.5295141 15.5443313,20.2014531 C15.5030977,19.9877514 15.5534503,19.8393154 15.8688477,19.2469189 C17.1431245,16.8528822 17.6970027,14.6498293 17.6970027,11.9756701 C17.6970027,9.39122715 17.2065608,7.38050587 15.9885837,4.97029715 C15.726909,4.452985 15.5130097,3.97263747 15.5130097,3.90313629 C15.5130097,3.64669424 15.7340455,3.27493028 15.9733194,3.12899704 C16.301404,2.92915707 16.8511192,2.96650673 17.1143799,3.20639171 C17.2154815,3.29880326 17.4783457,3.71773562 17.6983904,4.13743807 C18.5698466,5.79949828 19.1671391,7.62308618 19.4619197,9.52098837 C19.6444973,10.6957702 19.6807749,12.9219259 19.5350697,13.9971728 C19.2660601,15.9809407 18.7268515,17.7508144 17.8637213,19.4848786 C17.3419577,20.5329796 17.0144677,20.9642335 16.7403039,20.9642335 C16.6853919,20.9642335 16.5959863,20.9775176 16.5414708,20.9938822 C16.486757,21.0098617 16.336294,20.9934971 16.2068443,20.9569176 Z M12.6597636,19.1548924 C12.2034187,19.0259012 11.8743428,18.4822133 12.0063696,18.0748324 C12.038286,17.9762601 12.2531765,17.5220958 12.4835296,17.0654287 C13.4596558,15.1322946 13.8656481,13.0599656 13.6668149,11.0253714 C13.5032682,9.35349244 13.1946109,8.29923068 12.4175162,6.75653539 C11.8961491,5.72152604 11.871964,5.5611535 12.1750706,5.1443389 C12.4633093,4.74812439 13.1829149,4.68382135 13.5607574,5.02073846 C13.8228286,5.25407762 14.6375887,6.90651163 14.9519948,7.84217856 C15.9927467,10.9391206 15.8339577,14.2636261 14.5002094,17.3060838 C13.8168814,18.8643735 13.3371444,19.3462613 12.6597636,19.1548924 Z M9.00186762,17.3272614 C8.71997254,17.2038535 8.47732867,16.9142973 8.41131527,16.6224309 C8.37107286,16.4447312 8.44045632,16.2479716 8.77488459,15.5903094 C10.0033683,13.1737474 10.0166503,10.846324 8.81532524,8.48617154 C8.28781271,7.44942948 8.27631488,7.24323621 8.7223514,6.83431511 C8.94259432,6.63274242 9.03616288,6.59693294 9.34541486,6.59693294 C9.86400666,6.59693294 10.1330162,6.85010208 10.596696,7.77479514 C11.3095615,9.19697038 11.6013685,10.4308571 11.5989896,12.0116721 C11.5964125,13.6365752 11.3236364,14.7520596 10.5620043,16.251822 C10.1256814,17.1104794 9.91019622,17.3372727 9.47347691,17.395415 C9.34026066,17.4131272 9.12814552,17.3823233 9.00186762,17.3272614 Z M5.58879615,15.6247712 C5.36538141,15.535055 5.11044676,15.2399156 5.03452143,14.983281 C4.95007185,14.6966127 5.01925707,14.4690492 5.35447829,13.9336398 C5.78564693,13.2449813 5.88615383,12.8755276 5.88615383,11.9754776 C5.88615383,11.0756202 5.78564693,10.705974 5.35447829,10.0173154 C5.20837655,9.78397624 5.0616801,9.50423878 5.02837604,9.39584773 C4.88941088,8.941876 5.27894944,8.38567398 5.80190249,8.29037457 C6.24536191,8.20951447 6.54985618,8.40184601 6.95743444,9.01984824 C8.1377462,10.8089743 8.13754796,13.1993531 6.95683972,14.9734623 C6.54034073,15.599358 6.07586803,15.8205681 5.58879615,15.6247712 Z"/>
</svg>
