<svg xmlns="http://www.w3.org/2000/svg" width="24" height="24" viewBox="0 0 24 24">
  <path fill="#0070F0" fill-rule="evenodd" d="M10.0153958,3.28531605 C7.11599862,4.140926 5,6.82335402 5,10 L5,14 L2,17 L2,19 L22,19 L22,17 L19,14 L19,10 C19,6.82347607 16.884164,4.14113213 13.9849384,3.28541468 C13.8813173,2.55447713 13.2555928,2 12.4991673,2 L11.5008327,2 C10.7508978,2 10.1205221,2.55859004 10.0153958,3.28531605 Z M12,22 C10.8954305,22 10,21.1045695 10,20 C11.3225664,20 12.565883,20 14,20 C14,21.1045695 13.1045695,22 12,22 Z"/>
</svg>
