<svg xmlns="http://www.w3.org/2000/svg" width="24" height="24" viewBox="0 0 24 24">
  <path fill="#FFDB4D" d="M6,19 L6,22 L20.9991283,22 C21.5553691,22 22,21.5559546 22,21.0081969 L22,2.99180311 C22,2.45530558 21.5518945,2 20.9991283,2 L7.00087166,2 C6.44463086,2 6,2.44404538 6,2.99180311 L6,8 L6.00003336,8 L6.00003336,5 L7.99973554,5 L7.99973554,4 L20,4 L20,19 L13,19 L13,22 L6.00003336,22 L6.00003336,19 L6,19 Z M11.0046024,6 C11.5543453,6 12,6.44463086 12,7.00087166 L12,20.9991283 C12,21.5518945 11.5443356,22 11.0046024,22 L2.99539757,22 C2.44565467,22 2,21.5553691 2,20.9991283 L2,7.00087166 C2,6.4481055 2.4556644,6 2.99539757,6 L11.0046024,6 Z M8,19 L10.5,19 L10.5,8 L3.5,8 L3.5,19 L6,19 C6,19.5522847 6.44771525,20 7,20 C7.55228475,20 8,19.5522847 8,19 Z"/>
</svg>
