<svg xmlns="http://www.w3.org/2000/svg" width="24" height="24" viewBox="0 0 24 24">
  <path fill="#FFDB4D" fill-rule="evenodd" d="M13,11 L16,11 L16,13 L11,13 L11,12 L11,6 L13,6 L13,11 Z M6.34314575,6.34314575 L9,9 L2,9 L2,2 L4.92893219,4.92893219 C6.73857625,3.11928813 9.23857625,2 12,2 C17.5228475,2 22,6.4771525 22,12 C22,17.5228475 17.5228475,22 12,22 C6.4771525,22 2,17.5228475 2,12 L4,12 C4,16.418278 7.581722,20 12,20 C16.418278,20 20,16.418278 20,12 C20,7.581722 16.418278,4 12,4 C9.790861,4 7.790861,4.8954305 6.34314575,6.34314575 Z"/>
</svg>
