<svg xmlns="http://www.w3.org/2000/svg" width="16" height="16" viewBox="0 0 16 16">
  <path fill="#0070F0" fill-rule="evenodd" d="M9,7.5 L11,7.5 L11,9 L7.5,9 L7.5,4 L9,4 L9,7.5 Z M4.46446609,4.46446609 L6.5,6.5 L1,6.5 L1,1 L3.05025253,3.05025253 C4.31700338,1.78350169 6.06700338,1 8,1 C11.8659932,1 15,4.13400675 15,8 C15,11.8659932 11.8659932,15 8,15 C4.47352809,15 1.55611852,12.3922941 1.07088886,9 L3.10001812,9 C3.56328845,11.2822403 5.58104209,13 8,13 C10.7614237,13 13,10.7614237 13,8 C13,5.23857625 10.7614237,3 8,3 C6.61928813,3 5.36928813,3.55964406 4.46446609,4.46446609 L4.46446609,4.46446609 Z"/>
</svg>
