<?xml version="1.0" encoding="UTF-8" standalone="no"?>
<svg width="16px" height="16px" viewBox="0 0 16 16" version="1.1" xmlns="http://www.w3.org/2000/svg" xmlns:xlink="http://www.w3.org/1999/xlink">
    <!-- Generator: Sketch 42 (36781) - http://www.bohemiancoding.com/sketch -->
    <title>cheque</title>
    <desc>Created with Sketch.</desc>
    <defs></defs>
    <g id="part-IV" stroke="none" stroke-width="1" fill="none" fill-rule="evenodd">
        <g id="cheque" fill-rule="nonzero" fill="#0070F0">
            <path d="M1,0 L15,0 L15,16 L13,16 L11,14 L8,16 L5,14 L3,16 L1,16 L1,0 Z M4.74516424,11.4264086 L8,13.5962991 L11.2548358,11.4264086 L13,13.1715729 L13,2 L3,2 L3,13.1715729 L4.74516424,11.4264086 Z M5,4 L11,4 L11,5 L5,5 L5,4 Z M5,6 L11,6 L11,7 L5,7 L5,6 Z M5,8 L11,8 L11,9 L5,9 L5,8 Z" id="Combined-Shape"></path>
        </g>
    </g>
</svg>