<svg xmlns="http://www.w3.org/2000/svg" width="24" height="24" viewBox="0 0 24 24">
  <path fill="#FFFFFF" fill-rule="evenodd" d="M16.9941413,0 C18.1019465,0 19,0.897026226 19,2.00494659 L19,21.9950534 C19,23.1023548 18.1029399,24 16.9941413,24 L7.00585866,24 C5.89805351,24 5,23.1029738 5,21.9950534 L5,2.00494659 C5,0.897645164 5.89706013,0 7.00585866,0 L16.9941413,0 Z M17.5,3 L17.5,20 L6.5,20 L6.5,3 L17.5,3 Z M12,23 C11.4477153,23 11,22.5522847 11,22 C11,21.4477153 11.4477153,21 12,21 C12.5522847,21 13,21.4477153 13,22 C13,22.5522847 12.5522847,23 12,23 Z"/>
</svg>
