<svg xmlns="http://www.w3.org/2000/svg" width="16" height="16" viewBox="0 0 16 16">
  <path fill="#FFFFFF" fill-rule="evenodd" d="M8,15 C4.13400675,15 1,11.8659932 1,8 C1,4.13400675 4.13400675,1 8,1 C11.8659932,1 15,4.13400675 15,8 C15,11.8659932 11.8659932,15 8,15 Z M11.7749381,4 L11,4 C10.4477153,4 10,4.44771525 10,5 C9.44771525,5 9,5.44771525 9,6 C8.44771525,6 8,6.44771525 8,7 L8,9 C8,9.55228475 8.44771525,10 9,10 L10,10 L10,12 C10,12.3831417 10.2154739,12.7159568 10.5318525,12.8838761 C12.2953594,11.9677924 13.5,10.1245756 13.5,8 C13.5,6.4239717 12.8371105,5.00276953 11.7749381,4 L11.7749381,4 Z M2.87494031,6 L4,6 C4.55228475,6 5,5.55228475 5,5 L4.82702424,5 L6,5 C6.55228475,5 7,4.55228475 7,4 L7,3 C7,2.86014008 6.97128807,2.7269862 6.91943697,2.60611109 C5.06584675,2.97538146 3.5481194,4.27623956 2.87494031,6 L2.87494031,6 Z M4.85765022,12.5145266 C4.94802595,12.3642051 5,12.1881722 5,12 L5,10 C5,9.44771525 4.55228475,9 4,9 C4,8.44771525 3.55228475,8 3,8 L2.5,8 C2.5,9.86923584 3.4324838,11.5206784 4.85765022,12.5145266 L4.85765022,12.5145266 Z"/>
</svg>
