<svg xmlns="http://www.w3.org/2000/svg" width="24" height="24" viewBox="0 0 24 24">
  <path fill="#FFDB4D" fill-rule="evenodd" d="M8.00358614,4 L4,4 L4,8 L2,8 L2,3.99791312 C2,2.89826062 2.89503081,2 3.99910726,2 L8.00358614,2 L8.00358614,4 Z M8.00358614,20 L8.00358614,22 L3.99910726,22 C2.89503081,22 2,21.1017394 2,20.0020869 L2,16 L4,16 L4,20 L8.00358614,20 Z M16,4 L16,2 L20.0044789,2 C21.1085553,2 22.0035861,2.89826062 22.0035861,3.99791312 L22.0035861,8 L20.0035861,8 L20.0035861,4 L16,4 Z M16,20 L20.0035861,20 L20.0035861,16 L22.0035861,16 L22.0035861,20.0020869 C22.0035861,21.1017394 21.1085553,22 20.0044789,22 L16,22 L16,20 Z"/>
</svg>
