<svg xmlns="http://www.w3.org/2000/svg" width="24" height="24" viewBox="0 0 24 24">
  <path fill-rule="evenodd" d="M12.4270011,15.1554189 L11.5986098,15.1661923 C11.5657674,15.1666194 11.5328971,15.1668332 11.5,15.1668332 C7.35786415,15.1668332 4,11.7716221 4,7.58341658 C4,3.39521102 7.35786415,0 11.5,0 C15.6421358,0 19,3.39521102 19,7.58341658 C19,8.11881613 18.9758451,8.65466509 18.8682057,9.16922098 C18.8682057,9.16922098 18.5613737,10.7007602 18.3757105,11.2185941 C17.8708347,12.6267445 16.8756674,14.5515504 15.4997221,16.8504803 C15.1348093,17.4601768 14.7465338,18.0903664 14.3379534,18.7374167 C13.3584558,20.2886026 12.3081342,21.8656815 11.2577378,23.3853569 C10.890069,23.9172868 10.8287229,24 10.8287229,24 L12.2780928,15.9794506 L12.4270011,15.1554189 Z M11.5,10.5 C13.1568542,10.5 14.5,9.15685425 14.5,7.5 C14.5,5.84314575 13.1568542,4.5 11.5,4.5 C9.84314575,4.5 8.5,5.84314575 8.5,7.5 C8.5,9.15685425 9.84314575,10.5 11.5,10.5 Z"/>
</svg>
