<svg xmlns="http://www.w3.org/2000/svg" width="16" height="16" viewBox="0 0 16 16">
  <path fill="#0070F0" fill-rule="evenodd" d="M3,5.05561105 C3,2.26347402 5.2385761,0 8,0 C10.7614239,0 13,2.26347402 13,5.05561105 C13,5.41254409 12.9838968,5.76977673 12.9121371,6.11281398 C12.9121371,6.11281398 12.7075825,7.13384013 12.583807,7.47906272 C12.2472231,8.41782968 10.9172969,10.6247556 10,12.1573755 C9.83781652,12.4283517 9.02114992,13.7092266 7.55000019,16 L7.99992066,10.1112221 C5.23853323,10.1111787 3,7.84772135 3,5.05561105 Z M8,7 C9.1045695,7 10,6.1045695 10,5 C10,3.8954305 9.1045695,3 8,3 C6.8954305,3 6,3.8954305 6,5 C6,6.1045695 6.8954305,7 8,7 Z"/>
</svg>
