<svg xmlns="http://www.w3.org/2000/svg" width="16" height="16" viewBox="0 0 16 16">
  <path fill="#FFFFFF" fill-rule="evenodd" d="M3.5,7 L3.5,5.5 C3.5,3.01471863 5.51471863,1 8,1 C10.4852814,1 12.5,3.01471863 12.5,5.5 L12.5,7 L12.9975267,7 C13.5511774,7 14,7.45303631 14,7.99703014 L14,14.0029699 C14,14.5536144 13.544239,15 12.9975267,15 L3.00247329,15 C2.44882258,15 2,14.5469637 2,14.0029699 L2,7.99703014 C2,7.4463856 2.45576096,7 3.00247329,7 L3.5,7 Z M8,10 C7.44771525,10 7,10.4477153 7,11 C7,11.5522847 7.44771525,12 8,12 C8.55228475,12 9,11.5522847 9,11 C9,10.4477153 8.55228475,10 8,10 Z M5,7 L11,7 L11,5.5 C11,3.84314575 9.65685425,2.5 8,2.5 C6.34314575,2.5 5,3.84314575 5,5.5 L5,7 Z"/>
</svg>
