<svg xmlns="http://www.w3.org/2000/svg" width="24" height="24" viewBox="0 0 24 24">
  <path fill="#0070F0" fill-rule="evenodd" d="M6,10 L6,8 C6,4.6862915 8.6862915,2 12,2 C15.3137085,2 18,4.6862915 18,8 L18,10 L18.0059397,10 C19.1072288,10 20,10.9019504 20,12.0085302 L20,19.9914698 C20,21.1007504 19.1054862,22 18.0059397,22 L5.99406028,22 C4.8927712,22 4,21.0980496 4,19.9914698 L4,12.0085302 C4,10.8992496 4.89451376,10 5.99406028,10 L6,10 Z M8,10 L16,10 L16,8 C16,5.790861 14.209139,4 12,4 C9.790861,4 8,5.790861 8,8 L8,10 Z M11,16 C11,16.5561352 11.4477153,17 12,17 C12.5561352,17 13,16.5522847 13,16 C13,15.4438648 12.5522847,15 12,15 C11.4438648,15 11,15.4477153 11,16 Z"/>
</svg>
