<svg xmlns="http://www.w3.org/2000/svg" width="16" height="16" viewBox="0 0 16 16">
  <path fill="#0070F0" fill-rule="evenodd" d="M8,15 C4.13400675,15 1,11.8659932 1,8 C1,4.13400675 4.13400675,1 8,1 C11.8659932,1 15,4.13400675 15,8 C15,11.8659932 11.8659932,15 8,15 Z M7,13 L9,13 L9,11 L7,11 L7,13 Z M8,3 C5.79,3 4.5,4.28111111 4.5,6 L6.5,6 C6.5,5.14444444 6.9,4.55555556 8,4.55555556 C9.1,4.55555556 9.5,5.25555556 9.5,6.11111111 C9.5,7.66666667 7,7.47222222 7,10 L9,10 C9,8.25 11.5,8.05555556 11.5,6.11111111 C11.5,4.39222222 10.21,3 8,3 Z"/>
</svg>
