<svg xmlns="http://www.w3.org/2000/svg" width="16" height="16" viewBox="0 0 16 16">
  <path fill="#FFFFFF" fill-rule="evenodd" d="M4.44651858,11.5534814 C5.35912121,12.4477506 6.61440844,13 8,13 C10.4437053,13 12.4821017,11.2822403 12.9501116,9 L15,9 C14.5098062,12.3922941 11.5625498,15 8,15 C6.06017181,15 4.3027697,14.2268509 3.02512601,12.974874 L1,15 L1,9.5 L6.5,9.5 L4.44651858,11.5534814 Z M11.5534814,4.44651858 C10.6408788,3.55224935 9.38559156,3 8,3 C5.55629474,3 3.5178983,4.71775968 3.04988844,7 L1,7 C1.49019384,3.60770586 4.43745022,1 8,1 C9.93982819,1 11.6972303,1.77314909 12.974874,3.02512601 L15,1 L15,6.5 L9.5,6.5 L11.5534814,4.44651858 Z"/>
</svg>
