<svg xmlns="http://www.w3.org/2000/svg" width="24" height="24" viewBox="0 0 24 24">
  <path fill="#0070F0" fill-rule="evenodd" d="M6.29597155,17.7040284 L9,15 L2,15 L2,22 L4.8578564,19.1421436 C6.69836087,20.9099739 9.21928748,22 12,22 C16.936667,22 21.0545468,18.5644806 22,14 L19.8929184,14 C18.969229,17.4538101 15.7855236,20 12,20 C9.78030426,20 7.7675275,19.1245612 6.29597155,17.7040284 Z M17.7040284,6.29597155 L15,9 L22,9 L22,2 L19.1421436,4.8578564 C17.3016391,3.09002613 14.7807125,2 12,2 C7.06333295,2 2.94545316,5.43551936 2,10 L4.10708156,10 C5.03077103,6.5461899 8.21447641,4 12,4 C14.2196957,4 16.2324725,4.87543876 17.7040284,6.29597155 Z"/>
</svg>
