<svg xmlns="http://www.w3.org/2000/svg" width="24" height="24" viewBox="0 0 24 24">
  <path fill="#FFDB4D" d="M6.26963285,22.0176984 L6.28989633,22.0064206 C6.28300051,22.0099455 6.27624186,22.0137041 6.26963285,22.0176984 Z M13.4804679,18.004458 L22,18.004458 L22,6 L2,6 L2,18 L6.9995363,18 L6.9995363,20 L6.999515,21.6114774 L13.4804679,18.004458 Z M2,4 L22,4 L22,4 C23.1045695,4 24,4.8954305 24,6 L24,18.004458 L24,18.004458 C24,19.1090275 23.1045695,20.004458 22,20.004458 L13.9995363,20.004458 L7.24225569,23.7652695 C6.52791276,24.1927547 5.60872689,23.9492302 5.18919657,23.2213423 C5.05561253,22.9895731 5.00124785,22.7734134 4.9995363,22.4734136 L4.9995363,20 L2,20 L2,20 C0.8954305,20 -3.0881846e-16,19.1045695 -4.4408921e-16,18 L-5.91645679e-31,6 L-5.91645679e-31,6 C-1.3527075e-16,4.8954305 0.8954305,4 2,4 Z M5,9 L19,9 L19,11 L5,11 L5,9 Z M5,13 L19,13 L19,15 L5,15 L5,13 Z"/>
</svg>
