<svg xmlns="http://www.w3.org/2000/svg" width="16" height="16" viewBox="0 0 16 16">
  <path fill="#FFFFFF" fill-rule="evenodd" d="M1,3 L15,3 C15.5522847,3 16,3.45620458 16,4.01896146 L16,12.0020905 C16,12.5648473 15.5522847,13 15,13 L9,13 L4.49514626,15.8612372 C4.01891764,16.1462274 3.40612706,15.9838777 3.12644018,15.4986191 C3.03738415,15.3441063 3.00114103,15.1999998 3,15 L3,12.997028 L1,12.997028 C0.447716665,12.9983017 0.00124996064,12.5648459 1.77635684e-15,12.0020905 L0,4.01896146 C-6.76542156e-17,3.45620458 0.44771525,3 1,3 Z M2,4.99879092 L2,11 L5,11 L5,13 L8,10.9991629 L14,11 L14,5 L2,4.99879092 Z"/>
</svg>
