<svg xmlns="http://www.w3.org/2000/svg" width="16" height="16" viewBox="0 0 16 16">
  <path d="M11.0217832,9.63191819 L14.9949466,13.6050816 L13.5807331,15.0192952 L9.60309046,11.0416525 C8.71983035,11.6463042 7.65122022,12 6.5,12 C3.46243388,12 1,9.53756612 1,6.5 C1,3.46243388 3.46243388,1 6.5,1 C9.53756612,1 12,3.46243388 12,6.5 C12,7.66377346 11.6385485,8.7431254 11.0217832,9.63191819 Z M6.5,10 C8.43299662,10 10,8.43299662 10,6.5 C10,4.56700338 8.43299662,3 6.5,3 C4.56700338,3 3,4.56700338 3,6.5 C3,8.43299662 4.56700338,10 6.5,10 Z"/>
</svg>
