<svg xmlns="http://www.w3.org/2000/svg" width="24" height="24" viewBox="0 0 24 24">
  <path fill="#FFDB4D" d="M16.3147714,14.9010601 L22,20.5862887 L20.5862887,22 L14.9010601,16.3147714 C13.5468575,17.3674583 11.8452134,17.9943172 9.9971586,17.9943172 C5.58044986,17.9943172 2,14.4138673 2,9.9971586 C2,5.58044986 5.58044986,2 9.9971586,2 C14.4138673,2 17.9943172,5.58044986 17.9943172,9.9971586 C17.9943172,11.8452134 17.3674583,13.5468575 16.3147714,14.9010601 Z M10,16 C13.3137085,16 16,13.3137085 16,10 C16,6.6862915 13.3137085,4 10,4 C6.6862915,4 4,6.6862915 4,10 C4,13.3137085 6.6862915,16 10,16 Z"/>
</svg>
